<?xml version="1.0" encoding="utf-8"?>
<!-- Generator: Adobe Illustrator 26.3.1, SVG Export Plug-In . SVG Version: 6.00 Build 0)  -->
<svg version="1.1" id="Layer_1" xmlns="http://www.w3.org/2000/svg" xmlns:xlink="http://www.w3.org/1999/xlink" x="0px" y="0px"
	 viewBox="0 0 32 32" style="enable-background:new 0 0 32 32;" xml:space="preserve">
<style type="text/css">
	.st0{fill:none;stroke:#000000;stroke-width:4;stroke-miterlimit:10;}
	.st1{fill:#FFCE7C;}
	.st2{fill:#FEEFC2;}
</style>
<path class="st0" d="M16,28.2c0.3,0,0.5,0,0.8,0h6.1c6.6,0,9.7-8.3,4.5-12.6l-4.2-3.5c-2-1.6-3.1-4-3.1-6.6V4.2
	c0-0.7-0.5-1.2-1.2-1.2h-5.8c-0.6,0-1.2,0.5-1.2,1.2v1.5c0,2.5-1.1,4.9-3.1,6.6l-4.2,3.5C-0.5,20,2.5,28.3,9.1,28.3h6.1
	C15.5,28.3,15.7,28.3,16,28.2z"/>
<path class="st1" d="M16,28.2c0.3,0,0.5,0,0.8,0h6.1c6.6,0,9.7-8.3,4.5-12.6l-4.2-3.5c-2-1.6-3.1-4-3.1-6.6V4.2
	c0-0.7-0.5-1.2-1.2-1.2h-5.8c-0.6,0-1.2,0.5-1.2,1.2v1.5c0,2.5-1.1,4.9-3.1,6.6l-4.2,3.5C-0.5,20,2.5,28.3,9.1,28.3h6.1
	C15.5,28.3,15.7,28.3,16,28.2z"/>
<path class="st2" d="M22.1,14.1l-2.3-2.2c-1.5-1.4-2.4-3.4-2.4-5.5V3h-2.8v3.4c0,2.1-0.9,4.1-2.4,5.5l-2.3,2.2
	c-5.4,5.1-1.8,14.2,5.7,14.2h0.8C23.8,28.3,27.4,19.2,22.1,14.1z"/>
</svg>
