<?xml version="1.0" encoding="utf-8"?>
<!-- Generator: Adobe Illustrator 26.3.1, SVG Export Plug-In . SVG Version: 6.00 Build 0)  -->
<svg version="1.1" id="Layer_1" xmlns="http://www.w3.org/2000/svg" xmlns:xlink="http://www.w3.org/1999/xlink" x="0px" y="0px"
	 viewBox="0 0 313.9 370.9" style="enable-background:new 0 0 313.9 370.9;" xml:space="preserve">
<style type="text/css">
	.st0{fill:#878787;}
</style>
<path class="st0" d="M154.6,325.5c-0.7,3.4-1.3,6.7-2,10.1l1.5,0.3c1.9-8,3.8-16,5.8-24.1l0.4,0c-0.8,5.9-1.6,11.7-2.5,17.5l0.4,0.1
	c0.9-2.4,1.7-4.8,2.5-7.1l0.6,0.2c-1,3.8-2,7.6-3,11.4l0.7,0.4c0.6-0.7,1.4-1.3,1.6-2.1c2.9-8,4.9-16.4,4.9-24.9
	c0-6.7-1.1-13.5-1.8-20.2c-0.1-1.1-0.2-2.2-0.3-3.4l0.9-0.1c0.8,8.1,2.4,16.3,2.3,24.4c-0.1,8.2-1.8,16.3-2.8,25.4
	c0.8-1.3,1.5-2,1.7-2.8c3.4-14.7,3.4-29.6,0.6-44.4c-3.8-20.1-8.2-40.2-12.3-60.3c-0.2-0.9-0.3-1.7-0.4-2.6l0.9-0.2
	c1.7,7.2,3.5,14.5,5.1,21.8c2.3,10.5,4.6,21.1,6.8,31.6c3.3,15.7,4.8,31.5,2.1,47.5c-0.5,2.8-1.2,5.5-1.3,8.3
	c6.9-12.5,5-26.3,5-39.8l0.8,0c0.2,5.7,0.6,11.4,0.4,17.1c-0.2,5.6-0.9,11.3-1.5,17.2c2.6-3.7,5.7-7.2,7.7-11.2
	c1.1-2.3,0.8-5.4,0.8-8.1c0-1.9,0.4-3.1,2.6-3.2c2.4-0.2,3.2-1.5,3.2-4c-0.2-13.8-2.4-27.1-7-40.1c-1.9-5.3-3.2-10.7-4.4-16.2
	c4,9.2,7.8,18.6,9.6,28.5c1.8,9.9,2.9,19.9,4.4,30.2c2.8,0.6,4.2-0.3,4.7-3.8c1.6-10.9-0.3-21.5-2.9-32
	c-3.9-16.3-10.9-31.5-17.6-46.8c-5.5-12.5-11.1-24.9-14.7-38.1c-0.2-0.6-0.2-1.2,0-1.9c2.3,6,4.6,12,7.1,18
	c5.5,13.1,11.3,26.1,16.8,39.2c5.6,13.6,10.5,27.5,12.2,42.2c0.6,5.4,0.3,10.9,0.4,16.3c0,1.6,0,3.2,0,5.4c4.3-1.5,8-3,11.2-5.6
	c0.7-0.6,0.9-2.2,0.9-3.4c0-9.9-2.1-19.5-4.6-29c-4.7-17.7-13.5-33.6-22.8-49.1c-9.5-15.8-18.5-31.8-25.4-48.9
	c-0.8-2-0.7-4.2-1.1-6.4c-0.5-2.4-1.1-4.8-1.6-7.2c-3.6-14.5-7.3-29-11-43.6c-0.2-0.7-0.4-1.4-0.9-2.1c0.2,1,0.4,2,0.5,3.1
	c1.8,22.8,7.8,45,11.8,67.4c0.5,2.7,1,5.4,1.5,8.1l-1,0.2l-20-102.4l-0.9,0.2c0.1,0.9,0.2,1.8,0.4,2.7c1.4,7.5,2.8,15,4.1,22.5
	c2,11.1,3.9,22.2,5.7,33.3c2,12.3,3.9,24.7,5.8,37c0.6,4.1,1.5,8.1,1.6,12.2c0.1,3.3,0.8,6.2,1.7,9.4c1.1,3.4,0.7,7.3,1,10.9
	l-0.8,0.2c-1.1-4.4-2.3-8.7-3.4-13.1c-0.6-2.3-1.1-4.7-1.1-7.1c-0.1-2,0.5-4,0.8-6c0.1-0.8,0.3-1.7,0.1-2.5
	c-2.8-15.6-5.6-31.2-8.4-46.7c-0.1-0.5-0.3-1-0.9-1.4c0.6,4,1.2,7.9,1.8,11.9l-0.9,0.1c-6.7-36.7-11.2-73.8-21.7-109.6
	c-3.4,2-6.6,3.9-10.1,5.9c5.6,19.6,8.1,40.4,10.8,61.1l-0.7,0.1c-1.2-8.2-2.4-16.3-3.7-24.6c-2.8,7.6-1.4,15.2-1.4,22.7
	c0,10.5,0,21-2.9,31.3c-3.3,11.7-8.2,22.8-13.5,33.7c-4.6,9.5-12,16.3-19.8,23c-9.7,8.3-19.3,16.7-29,25c-0.4,0.4-0.9,0.7-1.5,0.9
	c7.3-10.5,17.7-17.9,27.4-27.1c-10,3.5-18.1,8.8-25.7,14.8c-10.2,8.2-19.6,17.4-25.7,29.2c-6,11.4-6.3,23.6-3.7,36
	c0.2,1.1,0.6,2.2,0.9,3.3c1,3.8,3.5,8,7.5,12.7v-6.5c1.8,4.5,3.4,8.2,4.9,11.8c-2.1-20.4,5-38,14.3-55l1.1,0.4
	c-1.6,3.2-3.2,6.4-4.7,9.6c-4.2,9.4-7.3,19.1-8.8,29.2c-1.1,7.5-0.6,14.8,2.6,21.9c0.9,1.9,0.9,4.2,1.3,6.3l-0.9,0.3
	c-0.4-0.4-0.9-0.6-1.2-1.1c-4.1-7.5-10-13.8-16.2-19.5C9,273,4.5,262.2,2.4,250.1c-1-6.3-2.5-12.6-2.4-18.9
	c0.1-9.9,2.4-19.5,9.5-27.2c1-1.1,2.1-2.1,3.6-2.9c-6,7.5-10.5,15.6-11.3,25.3c-0.7,9.6,1.2,18.8,4.2,27.9c0-1.7,0-3.4,0-5.1
	c0-1.7,0.2-3.4,0.2-5.1c0.4-11.3,4.9-20.8,12.4-29.1c9.5-10.5,21.6-17.3,34.1-23.6c6.5-3.3,12.8-7,19.2-10.6
	c0.4-0.2,0.9-0.4,1.3-0.5l-0.6-0.8c-1.2,0.3-2.3,0.6-3.5,0.9c-1.6,0.4-3.3,1.9-4.9-0.1c-0.2-0.2-0.9-0.1-1.4,0
	c-9.5,2.4-19.1,4.6-28.5,7.5c-4.4,1.3-8.4,4-12.6,6c-0.6,0.3-1.3,0.3-1.9,0.2c6.7-5.7,14.6-8.9,22.9-10.9
	c11.1-2.7,22.3-5.2,33.4-7.9c3-0.7,5.9-1.7,8.7-2.8c3.9-1.5,6.8-4.1,9-7.9c11.7-20,15.4-41.7,13.5-64.4c-1-11.7-1.8-23.4-3.7-35
	c-1.3-7.8-3.8-15.6-6.8-22.9c-5.2-12.7-3.9-24.6,3.1-36.1c3.4-5.5,7.9-7.2,12.8-5.4c0.9,0.3,1.8,0.7,2.5,1.3c2.7,2.3,5.4,4.7,8,7.2
	c3.3,3.1,5.1,6.8,6,11.4c4,20.5,8,41,12.6,61.3c2.5,10.8,6.2,21.2,9.6,31.7c3.5,11,7.1,22,13,32c6.6,11.1,15.6,19.2,28,23.1
	c8.9,2.8,17.9,5.3,26.9,7.9c22.1,6.3,36.2,21,43.7,42.3c2.1,6.1,3.7,12.4,5.4,18.7c0.4,1.6,1,2.3,2.8,2.4c4.8,0.2,9.7,0.6,14.5,1
	c2.6,0.2,5.4-1.4,6.7-4.1c0.7-1.5,1.3-3,1.8-4.5c1.5-4.5,4.4-8,8.1-10.8c4.2-3.1,7.1-7,8.2-12.3c0.6-3.1,1.8-6.1,2.8-9.3
	c0.4,0.4,0.7,0.5,0.6,0.6c-1.3,7.4-2.7,14.6-7.4,21c-7.8,10.5-10.1,20.6-2.5,32.2c5.3,8.1,6.8,17.1,6.6,26.5
	c-0.1,5.1-0.1,10.1-0.4,15.2c-0.2,4.5-0.8,8.9-1.3,14.2c-1-1-1.5-1.5-1.9-2c-0.5-0.6-1-1.2-1.4-1.9c-0.2-0.4-0.5-0.9-0.4-1.2
	c1-7.5,2.2-15,3-22.4c1.1-9.4,0.2-18.4-5.8-26.2c-9.4-12.2-24.8-17-39.5-8.3c-9.1,5.3-16.3,12.4-23.7,19.6
	c-5.3,5.2-10.7,10.3-16,15.5c-0.6,0.6-1.4,1.1-2.1,1.6c3.8-7.1,0.8-14-0.5-20.9c-0.1-0.5,0-1,0.4-1.6c2.7,5.5,2.7,11.6,3.9,17.9
	c4.9-5.2,9.6-10,14.1-15c0.5-0.5,0.6-1.6,0.4-2.3c-0.7-4.1-1.6-8.2-2.4-12.3c-0.1-0.3,0-0.7,0-1.1l0.9-0.2c1.1,4.2,2.1,8.4,3.2,13
	c2.5-2.3,4.9-4.5,7.2-6.8c0.4-0.4,0.4-1.6,0.2-2.4c-4.1-15.9-11.5-29.4-26-38.5c-14.4-9-28.9-18.2-41.4-29.9
	c-5.3-4.9-10.1-10.3-15.1-15.5c-0.6-0.7-1.2-1.4-2-1.9c6.8,12.8,18,21.5,28.5,30.8c-19-10.3-30.8-26.9-38.8-46.5l-0.9,0.5
	c1.7,4.5,3.3,9.1,5.3,13.5c6.1,13.5,15.9,23.7,27.7,32.4c10.2,7.5,20.3,15.2,30.1,23.2c8.4,6.9,15.4,15,20.4,24.8
	c0.2,0.4,0.4,0.8,0.5,1.1l-0.6,0.4c-1.1-1.5-2.2-3-3.1-4.6c-6.6-11.3-16-19.8-26.3-27.6c-11.4-8.7-23-17.3-34.4-26
	c-0.2-0.1-0.4-0.3-1-0.1c1.8,2.2,3.6,4.5,5.4,6.8c9.9,12.2,20.1,24.3,29.6,36.8c4.8,6.3,8.3,13.4,12.4,20.2c0.6,1,0.7,2.2,1.3,3.9
	c-1-0.5-1.5-0.6-1.6-0.8c-6-14.5-16.1-26.2-25.7-38.3c-10.7-13.4-21.1-27-31.7-40.6c-0.3-0.4-0.6-0.7-1.4-0.8
	c2.7,5.2,5.4,10.5,8.2,15.7c8.9,16.1,18.2,32,26.6,48.3c7.9,15.3,12.5,31.7,13.4,49.1c0,0.8,0.1,1.5,0.3,2.3
	c0.1,0.6,0.3,1.3,0.6,2.6l10.9-8.8c-9,9.9-19.9,17.2-32.6,21.7c4,5.6,8.7,6.8,15.6,3.2c8-4.2,15.5-9.3,23.2-14
	c2.6-1.6,5-3.3,7.8-4.6c-9.1,7.2-18.1,14.5-28.7,19.7c5.5-0.3,10.7-1.5,15.6-3.9c15.5-7.5,29.3-17.4,41.8-29.1
	c3.2-3,6.4-5.9,10.1-9.2c-1.3,4-15.1,16.6-27.8,25.7c-10.2,7.3-21.2,13.2-33.2,17.7c0.7,0.4,1.2,0.6,2.1,1.1l-11.4,3
	c20.2-1.2,37.2-10.4,53.7-22c-0.8,3.3-13,11.5-24.6,16.8c-9.1,4.2-18.4,7.6-28.4,9.4c8.4,1.5,16.2-1.9,24.3-2.8l0.2,0.9
	c-5.9,1.5-11.9,2.9-17.8,4.4l0,0.4c5.5-0.8,11-1.5,16.5-2.3c-6.7,3.3-14.1,2.5-21.2,4.3c5.9,1.8,11.9,1.6,18,0.8l0,1
	c-4.9,0.6-9.8,1.1-14.8,1.7c2.3,1.5,5.9,1.5,16.6-0.4c5.5-1,11-2,16.6-2.6c-11.2,3.7-22.8,5.1-34.5,5.7v1c5.7,0.4,11.4,0.8,17.1,1.2
	l0,0.5l-11.8,0.6v0.9h16.7l0.2,0.9c-0.5,0.3-1,0.8-1.5,0.8c-5,0-10.1-0.1-15.1-0.3c-1.3,0-2.6-0.6-3.9-0.5c-0.7,0-1.3,0.7-2,1.1
	c0.4,0.6,0.7,1.5,1.3,1.7c2.3,0.6,4.6,1.2,7,1.3c14.5,0.7,29,1,43.3-2.5c0.5-0.1,1,0,1.6,0.5c-3.6,2.6-8.1,2.3-12.1,3
	c-4.4,0.8-8.9,0.7-13.4,1c-4.4,0.2-8.8,0.5-13.1,0.9c4.9,0.3,9.9,0.8,14.8,0.9c4.8,0,9.6-0.4,14.4,0c-7.3,2.2-14.9,2.1-22.3,1.4
	c-7.5-0.7-15-1.9-22.6-2.5c6.1,2.8,12.3,5.2,18.9,6.1c6.6,0.9,13.3,1.4,19.9,1.2c6.3-0.2,12.6-1.6,18.9-1.9
	c-20.6,7.5-40.7,5.6-60.3-4.6l-0.4,1.1c0.6,0.6,1.1,1.4,1.7,1.8c14,8.7,29.1,12.7,45.6,11.1c18.5-1.8,33.7-10.1,46.2-23.5
	c4.1-4.4,6.8-9.6,8.3-15.5c-3.6,4-6.9,8.1-10.5,11.9c-7.3,7.4-16,12.9-25.7,16.7c-1.1,0.4-2.3,0.4-3.5,0.6l-0.3-0.7
	c0.4-0.4,0.8-1.2,1.2-1.2c5.3-0.2,8.8-4,12.9-6.3c8.3-4.7,15.1-11.1,21.1-18.6c2.6-3.2,4.9-6.2,5.7-10.3c0.1-0.6,1-1,1.6-1.5
	c0.4,1,1.4,2.1,1.2,2.8c-1.8,5.6-3.5,11.3-5.9,16.7c-6,13.6-16.8,22.7-29,30.6c-9.8,6.3-20.5,9.1-31.8,10
	c-14.1,1.1-28.1,0.8-41.5-4.6c-12.4-5-21.6-13.1-26.1-25.9c-1-2.9-2.5-3.8-5.3-2.9c-2,0.6-4,1.2-5.9,2c-7.9,3.3-16.2,4.1-24.7,3.7
	c-7-0.3-13.8-1.9-20.4-4.1c-10.3-3.5-21.2-3.9-31.9-4.4c-15.1-0.7-28.4-5.7-38.8-16.9c-3.2-3.5-5.8-7.5-8.7-11.3
	c-1.3-1.6-0.7-2.7,0.9-3.9c3.6,4.6,7,9,10.5,13.5l0.7-0.3c-0.2-1.1-0.3-2.1-0.5-3.2c-1.7-6.7-1.8-13.5-0.8-20.4
	c1-6.7,1-13.5,2.1-20.2c2.3-13.9,7.3-26.9,15.7-38.3c7.6-10.4,15.6-20.5,23.4-30.7c0.5-0.7,1.2-1.3,1.8-2l0.6,0.4
	c-0.9,1.5-1.8,3-2.8,4.4c-7.4,10-15,20-22.3,30.1c-8.3,11.5-12.8,24.6-15,38.6c-0.9,5.7-2.4,11.4-2.5,17.2
	c-0.1,8.1-0.9,16.5,2.4,24.3c1.7,4.1,4.2,7.4,9.2,7.7c0.7,0,1.4,0.8,2,1.3c1.2,0.9,2.4,1.8,3.6,2.8l0.5-0.5
	c-0.9-2.8-1.8-5.5-2.8-8.3l0.7-0.3c2.8,3.5,4,8.2,7.6,11.2l0.6-0.4c-0.2-0.4-0.3-0.8-0.5-1.2c-9.4-17.4-9.6-35.7-5.2-54.5
	c4.4-19,12.8-36.2,23-52.7c7-11.3,13-23.3,19.1-35.1c2-3.8,2.8-8.2,4.1-12.3l0.8,0.1c-0.3,1.7-0.5,3.4-0.9,5
	c-3.1,11-8.6,20.9-14.3,30.8c-7.1,12.2-14.9,24-20.9,36.8c-8.1,17.3-13.8,35.4-11.9,55c0.8,8.7,2.4,17.2,7,24.9
	c2.3,3.8,5.6,5.6,9.9,5.7c2.8,0,5.5,0,8.6,0c-0.3-0.9-0.5-1.6-0.8-2.2c-5.8-9.2-6.8-19.5-6.5-30c0.4-20.1,5.6-39.1,12.2-57.9
	c4.9-14,9.5-28.2,14.3-42.3c0.5-1.6,1.1-3.2,1.9-5.5c1.1,5.5-0.1,10.2-1.2,14.8c-4.9,20.8-10.4,41.4-15,62.3
	c-4.3,19.5-3.5,38.9,5.1,57.4c2.1,4.6,5.7,6,10.7,5.8c-16-30.5-11.8-61.2-2.7-92.1l1,0.1c-0.7,3.2-1.3,6.4-2.2,9.5
	c-3.1,11.9-5.5,24-5.6,36.4c-0.1,15.7,2.4,30.8,10.6,44.5c1.7,2.9,2.7,3.5,8.7,4.5c-3.9-11.5-7.1-22.9-5.6-35
	c0.4,4.4,0.5,8.9,1.4,13.1c1.5,7,3.6,13.8,5.7,20.7c0.3,1.1,1.6,2.4,2.7,2.6c3.1,0.7,6.3,0.9,9.9,1.3c-0.9-3.8-2.1-6.8-2.3-10
	c-0.5-9.7-0.9-19.5-0.8-29.2c0.3-21.5,0.9-43,1.4-64.4c0-0.4,0.1-0.7,0.7-1.2c0.1,1,0.4,2,0.4,3c-0.3,14.3-0.7,28.6-0.9,42.9
	c-0.1,15.8,0,31.5,0.2,47.3c0,2.9,1.1,5.7,1.7,8.6l1.1-0.1c0.3-3.9,0.7-7.8,1-11.7l0.8,0c-0.2,4.7-0.4,9.3-0.6,14.3l3.3,0.3
	c1.6-6.3,3.1-12.6,4.7-18.8l0.8,0.2c-1.3,5.7-2.6,11.3-3.9,17l0.8,0.3c0.6-1.3,1.4-2.6,1.7-3.9c1.4-7.8,3.1-15.5,3.8-23.4
	c1.3-16.3,1-32.6-1.2-48.9c-0.2-1.8,0-3.6,0.5-5.5c2.8,27.2,5.3,54.4-1.9,81.4c0.9-2.5,1.7-5,2.9-8.1l0.7,2.6c1-2.2,2.1-4.4,3.1-6.5
	L154.6,325.5L154.6,325.5z M206.4,184.2c-0.1-0.4-0.2-0.9-0.5-1.1c-4.2-2.5-8.4-5.1-12.7-7.4c-2.3-1.3-4.9-2.2-7.3-3.2
	C192,178,198.9,181.8,206.4,184.2l-2,0.9c8,4.6,16.3,6.9,21.7,13.5c-11.7-6.3-23.5-12.6-35.2-18.9l-0.5,0.9c0.6,0.4,1.2,0.9,1.8,1.3
	c8.3,4.9,16.4,10.2,24.8,14.7c16.1,8.8,26.8,21.9,33,39c1.6,4.4,3.3,8.7,5,13.1c7.9-5.2,6.5-3.2,4.2-10.8c0-0.1-0.1-0.2-0.1-0.3
	c-2.8-8.5-6.2-16.8-11.7-24.1C236.8,199.7,222.5,190.8,206.4,184.2L206.4,184.2z M203.6,192.7l-0.4,0.6c-0.5-0.2-1.1-0.3-1.5-0.6
	c-7.2-4.9-14.9-9.4-21.5-15c-6.5-5.5-13-11.2-16.2-19.9c-2.3-6.4-7.2-12-9.7-18.4c-4.4-11.4-7.8-23.1-11.5-34.7
	c-1.3-4.1-2.5-8.3-3.7-12.5c-0.4,0.8-0.5,1.4-0.3,2.1c2.5,11,4.6,22.1,7.6,32.9c5.4,19.1,15.5,35.5,29.3,49.8
	c12.3,12.7,26.8,22.6,41.6,31.9c11.8,7.4,21.9,16.2,27.4,29.4c2,4.8,3.6,9.8,5.4,14.6c3.7-2.7,3.8-3,2.2-7
	c-1.4-3.6-2.8-7.3-4.2-10.9c-5.4-14.7-14.4-26.3-28-34.2c-4.2-2.4-8.2-5.1-12.4-7.6c-3.8-2.2-7.6-4.2-11.4-6.3l-0.3,0.6
	C198.5,189.1,201.1,190.9,203.6,192.7L203.6,192.7z M102.9,332.2c-5.4-8.6-7.6-17.7-9-26.8c-2.2-13.9-0.3-27.8,3.1-41.4
	c4.3-17.4,8.7-34.8,13-52.2c0.6-2.6,1-5.2,1.5-7.8c-0.7,0.3-0.9,0.7-1.1,1.2c-5,15.1-9.9,30.2-15.1,45.3
	c-6.3,18.3-10.1,36.9-9.1,56.4c0.4,8.1,2,15.9,7.1,22.6c0.7,0.9,1.6,1.8,2.6,2C97.9,331.9,100.1,331.9,102.9,332.2L102.9,332.2z
	 M19.2,279.5c-0.2-1.2-0.1-1.7-0.3-2.1c-4.4-8.1-4.6-17-4.4-25.9c0.2-9,3.2-17.2,8.1-24.7c10.7-16.3,25.1-28.2,42.2-37.3
	c3.6-1.9,7.1-4,10.6-5.9c-0.7-0.3-1.3-0.3-1.8-0.1c-16.7,7-32.7,15.2-46.8,26.6c-7.7,6.2-13.6,13.8-17,23.2
	c-2.9,8-2.2,16.2-2.1,24.4C7.7,266.6,11.9,273.4,19.2,279.5L19.2,279.5z M185.2,313.5c-2.5,3.8-4.9,7.6-7.4,11.3
	c-2.1,3-2.1,4.5,0.2,7.4c3,3.7,7.4,4.8,11.6,6.2c1.2,0.4,2.4,1.1,3.5,1.9c1.9,1.3,3.9,2.4,6.4,1.5c2.5-0.9,2.7-3,2.8-5.1
	c0.2-6.2-1-12-4.8-17c-1-1.3-2.4-2.3-3.6-3.5c-3.2-2.8-6.5-5.6-9.7-8.5c-0.4,2.2-0.8,3.9,1.6,4.5c0.8,0.2,1.3,1.4,1.9,2.2l-0.5,0.5
	C186.4,314.4,185.6,313.8,185.2,313.5L185.2,313.5z M223.8,360.2c4.7,1,9.4,2.2,14.1,2.8c4.9,0.7,9.8,1.3,14.8-0.5l-1.4-1.1
	c16.2-3,31.2-9.6,34.4-15.2c-0.7,0.4-1.2,0.7-1.6,1c-7.7,5-16,8.9-24.9,11.2c-2.4,0.6-5,0.5-7.5,0.8c-3.4,0.4-6.8,1.3-10.1,1.2
	c-14.6-0.7-28.4-4.6-40.5-13.3c-1.3-0.9-3.2-0.9-4.8-1.4l-0.3,0.8c0.4,0.5,0.8,1.2,1.4,1.6c4.5,3.2,8.8,6.7,13.6,9.3
	c10.1,5.5,21.2,7.8,32.6,8.7c4.8,0.4,9.4-1,13.8-2.8C245.9,365.3,234.7,364.6,223.8,360.2L223.8,360.2z M261.6,242.1l0.9-0.2
	c0-1.5,0.2-3,0-4.4c-1.6-8.5-4.6-16.5-8.7-24.1c-1.5-2.8-2.8-5.7-4.1-8.6c7.1,10.3,13,21.2,15.4,33.7c-1.2-12.1-4.2-23.5-11.4-33.5
	c-5.9-8.2-23.1-20.5-29.7-21.3c3,1.8,6,3.1,8.5,5.1c14.1,11.1,22.8,25.6,26.6,43.1C259.8,235.4,260.7,238.7,261.6,242.1L261.6,242.1
	z M119.1,17.3c1.8-3.6,1-6.9-2.1-9.8c-2.1-2.1-4.3-2.1-7.6-0.7c-4,1.7-5.6,5.2-7.2,8.8c-2.2,5-2.7,10.1-0.9,15.3
	c1.5,4.2,4.1,4.8,7.1,1.5c2.4-2.6,4.6-5.3,6.9-8c2.5-3,3.1-8.8,0.8-11.9c-1.2-1.6-3-2.7-4.4-4C116.4,8.8,118,10.5,119.1,17.3
	L119.1,17.3z M120.9,19.4c-3.9,4.8-7.5,9.6-11.5,14.1c-3.5,4-7.7,3.1-9.9-1.7c-3.9-9-0.2-21.5,8.1-26.8c1.3-0.9,2.7-1.7,4.1-2.6
	c-3.1-1.2-6.1-0.6-8.1,2c-6.9,8.8-8.6,19-6.8,29.7c0.9,5.1,6.7,7.3,11,4.3C114.4,33.6,118.7,27.2,120.9,19.4L120.9,19.4z M190,344.3
	c9,16.4,29.4,26.5,43.6,23c-5.6-1.8-12-3.7-18.3-5.8c-7.4-2.5-13.6-7.1-19.2-12.6C194.3,347.2,192,345.9,190,344.3z M254.2,221
	c-3.6-9.3-10.2-18.4-17.1-23.8c-6.9-5.4-23.5-13.6-26.7-12.9C228.7,192.4,244.2,203.4,254.2,221L254.2,221z M182.3,340.6
	c1.9,8.7,16.2,22.2,24.1,23c-8.7-4.9-14.2-12.4-20.1-19.4C185.3,343,184,342.1,182.3,340.6L182.3,340.6z M139.7,83.4
	c-0.5,5.7,5.6,26.1,9.3,30.8C145.9,103.8,142.9,93.9,139.7,83.4z M162.5,146.9c-3.1-6.1-6.2-12.2-9.3-18.3c-0.4,1.1-0.3,1.9,0,2.7
	C155.3,137.1,155.9,143.8,162.5,146.9z M295.6,240.9c1.6-6.1,2.3-12.2,6.8-16.7C297.2,226.2,292.9,236.4,295.6,240.9z M135.1,118.7
	c-1.4-10.3-1.6-20.7-4.2-30.7l-1,0.2C131.7,98.3,133.4,108.5,135.1,118.7z M120.4,28.6l-1.4,0.4c2,6.4,4,12.8,6.1,19.2l1-0.3
	C124.1,41.5,122.2,35,120.4,28.6L120.4,28.6z M118.5,31.7c-0.9,2.1,2.7,13.6,5.3,16.3L118.5,31.7z M134,63.7l-0.9,0.1
	c0.1,6,2.2,11.8,3.1,17.7l0.8-0.1L134,63.7L134,63.7z M124.2,21.4l-1.1,0.3c1.2,4.8,1.4,9.8,4,14.2l0.8-0.2
	C126.6,30.9,125.4,26.2,124.2,21.4L124.2,21.4z M131.1,52.9l1.1-0.3l-3.4-14.8l-1.1,0.2C128.8,43,130,48,131.1,52.9L131.1,52.9z
	 M183.8,350.8c0.3-0.2,0.7-0.4,1-0.5c-0.8-1.4-1.5-2.7-2.2-4.1c-0.8-1.4-1.8-2.8-2.1-4.3c-0.3-1.6,0-3.1-2.9-2.7
	C179.6,343,181.7,346.9,183.8,350.8L183.8,350.8z M131.3,66.6l0.9-0.1c-1.5-6.2-3-12.4-4.5-18.6l-0.6,0.1
	C128.5,54.2,129.9,60.4,131.3,66.6L131.3,66.6z M129.9,79.7l1.1-0.3l-2.8-12.8l-1,0.2L129.9,79.7L129.9,79.7z M123,30.9l-0.9,0.4
	l3.4,11.8l0.9-0.2C126.4,42.8,123,30.9,123,30.9z"/>
<path class="st0" d="M151.4,328.1c3.7-28.5,5.4-57.1,0.8-85.7C157.8,254.3,157.3,300.3,151.4,328.1z"/>
<path class="st0" d="M141.6,333.4c1.4-17.5,2.9-35,4.3-52.5C147.1,298.6,144.4,316,141.6,333.4z"/>
<path class="st0" d="M280.3,335.2c-6.9,3-13.4,7.2-21.4,7.5c7-2.9,14-5.8,21-8.8L280.3,335.2L280.3,335.2z"/>
<path class="st0" d="M301.2,314.8c-1.9,2.4-3.7,4.9-5.7,7.3c-0.2,0.3-1,0.3-1.5,0.2c-0.2-0.1-0.4-1-0.3-1.2c2.1-2.5,4.2-4.8,6.4-7.2
	L301.2,314.8L301.2,314.8z"/>
<path class="st0" d="M154.6,325.5c0.5-3.6,1.1-7.1,1.6-10.7c0.6-4,1.2-8.1,2.3-12.1c-0.2,2.5-0.3,4.9-0.6,7.3
	c-0.4,2.6-0.9,5.3-1.4,7.9C155.9,320.5,155.2,322.9,154.6,325.5L154.6,325.5L154.6,325.5z"/>
<path class="st0" d="M286,328.8c1.7-1.7,3.5-3.4,5.2-5c0.3-0.3,1-0.2,1.5-0.1c0.1,0,0.3,1,0.1,1.2c-2,1.6-4.1,3.2-6.1,4.8L286,328.8
	L286,328.8z"/>
<path class="st0" d="M300.5,312c1.2-1.9,2.2-3.5,3.5-5.6C305.2,310,304,311.8,300.5,312z"/>
<path class="st0" d="M261.5,337.9c1.7-0.4,3.4-0.8,5.1-1.1l0.3,1.1l-5.1,1.3L261.5,337.9L261.5,337.9z"/>
<path class="st0" d="M249.3,361.9h-10.1v-0.4h10.1L249.3,361.9L249.3,361.9z"/>
<path class="st0" d="M110.4,10.8c3.3,0.6,6.2,4.7,5,7.3c-1.6,3.5-3.3,6.9-5.2,10.2c-1.8,3.1-4.4,3-6.1-0.2c-0.7-1.4-1.2-3.2-0.9-4.6
	c0.7-3.2,1.6-6.5,3-9.4C106.8,12.6,108.9,11.9,110.4,10.8L110.4,10.8z M111.6,21.7c3.1-4,3.5-6.1,1.3-7.7c-2-1.5-3.2-0.1-4.6,1.5
	C112.1,16,111.5,18.9,111.6,21.7z"/>
</svg>
