<?xml version="1.0" encoding="UTF-8"?><svg id="Layer_1" xmlns="http://www.w3.org/2000/svg" viewBox="0 0 313.88 370.85"><path d="M154.57,325.45c-.66,3.37-1.32,6.74-1.98,10.11l1.46,.32c1.92-8.02,3.84-16.05,5.76-24.07l.42,.05c-.83,5.85-1.65,11.7-2.48,17.55l.35,.12c.85-2.38,1.69-4.76,2.54-7.14l.57,.18c-.99,3.8-1.99,7.61-2.98,11.41l.7,.42c.56-.7,1.36-1.31,1.65-2.1,2.93-8.03,4.87-16.36,4.91-24.88,.03-6.73-1.14-13.47-1.77-20.2-.11-1.12-.18-2.25-.26-3.38l.92-.1c.84,8.13,2.4,16.27,2.33,24.4-.07,8.17-1.75,16.33-2.83,25.4,.81-1.34,1.48-2.01,1.66-2.8,3.4-14.74,3.38-29.61,.57-44.37-3.83-20.14-8.18-40.18-12.3-60.27-.18-.86-.28-1.74-.42-2.61l.88-.16c1.71,7.25,3.5,14.48,5.11,21.75,2.34,10.52,4.61,21.06,6.83,31.6,3.31,15.71,4.83,31.52,2.06,47.49-.48,2.76-1.19,5.47-1.28,8.28,6.95-12.55,5.03-26.29,5.02-39.78l.75-.03c.16,5.69,.57,11.38,.4,17.06-.17,5.65-.94,11.27-1.47,17.21,2.65-3.74,5.7-7.21,7.71-11.2,1.15-2.27,.77-5.39,.78-8.12,0-1.94,.4-3.07,2.56-3.24,2.38-.19,3.23-1.53,3.19-4.02-.2-13.76-2.4-27.12-7-40.12-1.86-5.26-3.21-10.7-4.4-16.18,4.03,9.22,7.76,18.58,9.58,28.48,1.83,9.9,2.9,19.94,4.35,30.18,2.83,.58,4.19-.31,4.69-3.78,1.57-10.88-.32-21.47-2.86-31.96-3.93-16.31-10.94-31.49-17.65-46.76-5.49-12.47-11.12-24.88-14.69-38.08-.16-.6-.2-1.24,.03-1.92,2.34,5.99,4.55,12.04,7.05,17.96,5.53,13.08,11.33,26.05,16.78,39.16,5.64,13.59,10.49,27.48,12.16,42.2,.61,5.38,.34,10.86,.45,16.3,.03,1.6,0,3.2,0,5.43,4.33-1.46,8.04-3.01,11.17-5.6,.74-.61,.85-2.25,.85-3.42,.01-9.92-2.07-19.52-4.6-29.04-4.72-17.71-13.46-33.59-22.84-49.1-9.53-15.76-18.51-31.79-25.36-48.92-.78-1.96-.72-4.24-1.14-6.35-.49-2.42-1.05-4.83-1.65-7.23-3.64-14.52-7.3-29.03-10.96-43.55-.18-.73-.45-1.44-.95-2.12,.18,1.02,.44,2.03,.52,3.06,1.76,22.85,7.83,44.95,11.77,67.42,.47,2.69,1,5.38,1.5,8.07l-1.02,.19-19.99-102.44-.91,.16c.11,.89,.19,1.8,.35,2.68,1.36,7.48,2.78,14.96,4.1,22.45,1.96,11.08,3.92,22.17,5.74,33.27,2.03,12.33,3.92,24.68,5.84,37.03,.63,4.05,1.5,8.11,1.6,12.18,.08,3.29,.76,6.22,1.72,9.35,1.05,3.43,.7,7.28,.96,10.95l-.8,.2c-1.13-4.35-2.33-8.68-3.37-13.06-.55-2.31-1.06-4.69-1.14-7.05-.07-1.98,.54-3.98,.8-5.98,.11-.84,.29-1.72,.15-2.53-2.76-15.59-5.56-31.17-8.36-46.74-.09-.51-.28-1.01-.9-1.43,.59,3.96,1.19,7.92,1.78,11.88l-.87,.14c-6.67-36.68-11.17-73.8-21.71-109.55-3.4,2.01-6.59,3.89-10.06,5.94,5.58,19.61,8.08,40.39,10.76,61.14l-.71,.12c-1.22-8.15-2.45-16.29-3.7-24.62-2.85,7.61-1.41,15.2-1.43,22.69-.02,10.52-.02,21.04-2.87,31.27-3.27,11.7-8.17,22.76-13.46,33.68-4.58,9.47-12.02,16.33-19.75,23.02-9.65,8.34-19.29,16.68-28.95,25.02-.43,.37-.9,.69-1.5,.88,7.29-10.51,17.67-17.95,27.43-27.06-9.96,3.54-18.14,8.75-25.69,14.81-10.23,8.21-19.56,17.4-25.73,29.18-5.99,11.44-6.28,23.6-3.66,35.98,.24,1.12,.56,2.22,.86,3.32q1.56,5.64,7.52,12.7v-6.52c1.84,4.49,3.36,8.16,4.87,11.84-2.06-20.37,4.98-38,14.35-55l1.1,.37c-1.56,3.2-3.2,6.36-4.65,9.61-4.18,9.36-7.32,19.08-8.83,29.22-1.11,7.45-.57,14.83,2.63,21.88,.86,1.9,.9,4.19,1.31,6.29l-.9,.29c-.39-.35-.91-.62-1.15-1.06-4.14-7.55-9.95-13.78-16.18-19.51-9.35-8.6-13.84-19.43-15.87-31.56C1.44,243.81-.05,237.47,0,231.16c.07-9.95,2.43-19.49,9.52-27.16,1.02-1.1,2.11-2.12,3.63-2.87-6,7.51-10.5,15.56-11.26,25.3-.74,9.57,1.18,18.76,4.16,27.93,0-1.7-.03-3.4,0-5.11,.04-1.72,.18-3.43,.25-5.15,.43-11.28,4.93-20.82,12.41-29.1,9.53-10.53,21.62-17.31,34.13-23.56,6.52-3.26,12.79-7.03,19.18-10.56,.41-.23,.88-.36,1.33-.53l-.61-.82c-1.16,.32-2.33,.64-3.49,.95-1.64,.44-3.28,1.86-4.91-.12-.19-.23-.93-.11-1.37,0-9.51,2.44-19.09,4.62-28.48,7.47-4.4,1.34-8.41,3.97-12.62,5.97-.57,.27-1.26,.28-1.93,.17,6.71-5.72,14.56-8.86,22.86-10.91,11.1-2.73,22.27-5.21,33.39-7.91,2.96-.72,5.86-1.71,8.71-2.78,3.95-1.49,6.84-4.11,9.04-7.87,11.72-20,15.42-41.65,13.47-64.45-1-11.69-1.77-23.44-3.69-34.99-1.3-7.82-3.82-15.57-6.84-22.93-5.23-12.74-3.95-24.63,3.06-36.07,3.38-5.51,7.86-7.15,12.77-5.43,.88,.31,1.8,.73,2.5,1.33,2.72,2.33,5.42,4.69,8.02,7.16,3.26,3.1,5.13,6.84,6.02,11.38,4.01,20.49,7.96,41,12.61,61.35,2.46,10.75,6.23,21.2,9.55,31.74,3.47,11,7.05,21.96,13.01,31.96,6.58,11.06,15.65,19.16,28.01,23.11,8.89,2.84,17.88,5.34,26.86,7.9,22.13,6.32,36.2,21,43.73,42.32,2.15,6.1,3.68,12.42,5.37,18.68,.44,1.62,1.02,2.34,2.84,2.41,4.84,.17,9.68,.58,14.51,.97,2.58,.21,5.43-1.41,6.66-4.06,.68-1.47,1.27-2.98,1.77-4.52,1.47-4.54,4.35-7.99,8.13-10.77,4.22-3.1,7.1-7.02,8.16-12.29,.62-3.12,1.8-6.12,2.77-9.32,.4,.35,.66,.49,.65,.59-1.29,7.41-2.7,14.65-7.4,21.01-7.77,10.53-10.15,20.56-2.51,32.25,5.27,8.06,6.76,17.1,6.63,26.52-.07,5.06-.13,10.13-.41,15.18-.25,4.45-.8,8.88-1.29,14.16-1.03-1.03-1.52-1.47-1.94-1.96-.51-.59-1-1.21-1.42-1.87-.23-.36-.46-.85-.41-1.24,1-7.48,2.16-14.95,3.03-22.44,1.09-9.35,.19-18.41-5.76-26.16-9.36-12.18-24.78-17-39.55-8.32-9.05,5.32-16.33,12.43-23.72,19.57-5.34,5.17-10.68,10.34-16.03,15.5-.63,.61-1.35,1.14-2.12,1.57,3.81-7.14,.79-14.01-.5-20.91-.09-.48-.01-1,.41-1.56,2.73,5.47,2.66,11.58,3.93,17.89,4.92-5.18,9.57-10.02,14.13-14.95,.46-.5,.55-1.59,.41-2.34-.73-4.12-1.6-8.21-2.4-12.32-.07-.34,0-.7,0-1.05l.89-.19c1.05,4.21,2.1,8.41,3.24,12.98,2.51-2.34,4.93-4.46,7.16-6.76,.44-.45,.4-1.63,.21-2.38-4.11-15.9-11.49-29.38-26.02-38.48-14.44-9.03-28.89-18.2-41.45-29.87-5.29-4.92-10.13-10.32-15.15-15.51-.64-.66-1.19-1.39-2-1.9,6.79,12.79,17.96,21.51,28.51,30.78-19.03-10.32-30.77-26.85-38.79-46.53l-.92,.46c1.74,4.52,3.28,9.13,5.27,13.53,6.1,13.46,15.95,23.73,27.72,32.43,10.19,7.53,20.29,15.2,30.1,23.21,8.4,6.85,15.39,15.04,20.42,24.76,.19,.37,.35,.77,.52,1.15l-.63,.4c-1.05-1.52-2.2-2.97-3.13-4.56-6.56-11.29-16.04-19.79-26.26-27.57-11.44-8.71-22.96-17.32-34.44-25.98-.2-.15-.43-.27-1-.1,1.8,2.25,3.59,4.51,5.4,6.75,9.89,12.24,20.05,24.27,29.56,36.8,4.75,6.26,8.34,13.4,12.37,20.19,.57,.96,.71,2.18,1.26,3.94-1-.52-1.47-.6-1.57-.83-6.01-14.49-16.11-26.23-25.71-38.33-10.66-13.44-21.12-27.03-31.66-40.55-.29-.37-.58-.74-1.39-.82,2.74,5.23,5.38,10.51,8.22,15.67,8.87,16.11,18.2,31.98,26.61,48.31,7.89,15.31,12.5,31.73,13.36,49.06,.04,.76,.14,1.52,.26,2.28,.11,.65,.28,1.3,.58,2.62l10.92-8.76c-9.03,9.9-19.86,17.18-32.57,21.73,3.98,5.59,8.67,6.84,15.56,3.2,7.98-4.21,15.5-9.27,23.19-14.01,2.57-1.58,5.03-3.32,7.82-4.58-9.09,7.24-18.12,14.54-28.73,19.67,5.51-.3,10.71-1.5,15.61-3.87,15.49-7.49,29.31-17.36,41.83-29.13,3.16-2.97,6.41-5.86,10.07-9.21-1.26,4.02-15.06,16.59-27.78,25.74-10.18,7.31-21.16,13.16-33.2,17.74,.74,.4,1.18,.64,2.05,1.11l-11.4,3.04c20.22-1.23,37.23-10.43,53.73-22.01-.77,3.3-12.96,11.47-24.57,16.77-9.09,4.16-18.45,7.61-28.39,9.43,8.39,1.45,16.24-1.9,24.34-2.82l.22,.93c-5.93,1.45-11.87,2.91-17.8,4.36l.02,.42c5.49-.77,10.98-1.55,16.47-2.32-6.71,3.31-14.14,2.49-21.17,4.26,5.88,1.84,11.9,1.57,17.97,.78l.04,1.01c-4.89,.57-9.79,1.14-14.79,1.72,2.34,1.52,5.88,1.45,16.64-.42,5.53-.96,11.04-2.04,16.65-2.58-11.17,3.66-22.75,5.07-34.48,5.68v1.02c5.69,.42,11.38,.84,17.06,1.25l-.03,.47-11.77,.65v.87h16.72l.16,.86c-.49,.29-.98,.84-1.46,.84-5.03-.04-10.05-.14-15.07-.31-1.32-.05-2.64-.57-3.95-.55-.67,0-1.33,.72-2,1.12,.42,.58,.74,1.54,1.27,1.67,2.3,.59,4.65,1.22,7,1.33,14.52,.71,29.03,1.02,43.31-2.47,.48-.12,1.04,.05,1.62,.45-3.65,2.59-8.08,2.31-12.15,3-4.4,.75-8.94,.7-13.42,.96-4.38,.25-8.76,.45-13.15,.88,4.93,.31,9.85,.84,14.78,.88,4.78,.04,9.55-.43,14.35-.04-7.34,2.22-14.85,2.06-22.31,1.4-7.51-.66-14.96-1.92-22.55-2.55,6.06,2.81,12.33,5.21,18.92,6.13,6.58,.93,13.3,1.44,19.93,1.22,6.33-.21,12.62-1.6,18.94-1.88-20.65,7.49-40.74,5.57-60.29-4.57l-.41,1.07c.57,.6,1.05,1.36,1.73,1.79,13.96,8.71,29.07,12.66,45.55,11.06,18.47-1.8,33.67-10.06,46.2-23.47,4.08-4.36,6.77-9.57,8.26-15.46-3.57,4.04-6.87,8.12-10.53,11.85-7.32,7.44-16.02,12.88-25.7,16.72-1.06,.42-2.29,.41-3.45,.61l-.3-.66c.4-.42,.78-1.18,1.19-1.19,5.27-.16,8.79-3.95,12.93-6.31,8.26-4.73,15.11-11.15,21.13-18.58,2.57-3.18,4.88-6.24,5.71-10.31,.12-.58,1.03-1.01,1.57-1.51,.42,.95,1.4,2.08,1.17,2.81-1.8,5.62-3.48,11.31-5.87,16.69-6.03,13.6-16.8,22.73-29.05,30.63-9.8,6.32-20.53,9.14-31.83,10.04-14.07,1.12-28.05,.79-41.46-4.61-12.37-4.99-21.62-13.11-26.13-25.92-1.01-2.87-2.5-3.78-5.27-2.87-1.99,.65-4,1.23-5.93,2.03-7.93,3.27-16.19,4.11-24.68,3.74-7.04-.31-13.78-1.88-20.4-4.15-10.35-3.55-21.16-3.88-31.93-4.35-15.14-.66-28.37-5.66-38.81-16.88-3.22-3.47-5.81-7.52-8.74-11.27-1.28-1.65-.67-2.72,.91-3.85,3.58,4.6,7.05,9.05,10.52,13.5l.73-.32c-.18-1.07-.3-2.15-.55-3.19-1.66-6.74-1.83-13.49-.83-20.39,.98-6.69,.97-13.53,2.08-20.19,2.32-13.91,7.28-26.89,15.69-38.3,7.63-10.35,15.58-20.47,23.4-30.68,.54-.71,1.17-1.34,1.76-2.01l.64,.45c-.92,1.48-1.76,3.02-2.79,4.41-7.41,10.04-14.96,19.98-22.27,30.1-8.33,11.53-12.78,24.63-15.01,38.57-.92,5.72-2.38,11.43-2.48,17.17-.14,8.14-.92,16.49,2.39,24.3,1.72,4.06,4.17,7.44,9.22,7.72,.7,.04,1.39,.83,2.04,1.32,1.21,.9,2.4,1.84,3.6,2.76l.5-.54c-.92-2.76-1.83-5.52-2.75-8.28l.69-.28c2.78,3.53,3.99,8.25,7.55,11.2l.64-.39c-.15-.39-.26-.8-.46-1.17-9.44-17.43-9.57-35.69-5.24-54.5,4.38-19.03,12.76-36.16,22.96-52.68,7-11.33,13-23.29,19.09-35.14,1.96-3.81,2.79-8.2,4.14-12.33l.76,.14c-.31,1.67-.48,3.39-.94,5.02-3.11,11.02-8.57,20.95-14.28,30.77-7.09,12.19-14.93,24.03-20.89,36.76-8.09,17.27-13.75,35.44-11.91,55.02,.82,8.69,2.4,17.19,7.01,24.85,2.29,3.8,5.55,5.63,9.9,5.67,2.76,.03,5.52,0,8.63,0-.33-.91-.47-1.63-.83-2.21-5.83-9.22-6.76-19.5-6.54-30.02,.42-20.09,5.64-39.15,12.25-57.95,4.93-14.02,9.51-28.17,14.26-42.26,.54-1.61,1.11-3.22,1.9-5.49,1.08,5.52-.13,10.17-1.22,14.76-4.95,20.77-10.38,41.44-14.96,62.29-4.3,19.54-3.5,38.86,5.08,57.4,2.12,4.58,5.7,6.02,10.68,5.83-15.97-30.45-11.76-61.23-2.68-92.11l.96,.09c-.71,3.18-1.32,6.38-2.15,9.53-3.14,11.94-5.53,24.01-5.57,36.4-.05,15.67,2.39,30.79,10.62,44.52,1.72,2.87,2.71,3.5,8.69,4.51-3.86-11.47-7.14-22.9-5.63-35.05,.45,4.39,.48,8.87,1.43,13.14,1.54,6.97,3.6,13.82,5.65,20.67,.32,1.07,1.62,2.38,2.67,2.61,3.12,.67,6.34,.85,9.94,1.26-.9-3.77-2.13-6.83-2.29-9.95-.5-9.72-.9-19.46-.78-29.18,.27-21.48,.89-42.96,1.38-64.44,0-.37,.09-.74,.7-1.21,.15,1,.44,2,.42,3-.27,14.31-.74,28.62-.85,42.93-.12,15.75,0,31.51,.23,47.26,.04,2.87,1.09,5.73,1.67,8.59l1.08-.15c.33-3.91,.67-7.82,1-11.72l.82,.05c-.21,4.66-.42,9.31-.65,14.29l3.32,.3c1.57-6.32,3.11-12.56,4.66-18.79l.79,.18c-1.29,5.66-2.59,11.31-3.88,16.97l.84,.29c.57-1.31,1.42-2.57,1.67-3.93,1.37-7.77,3.13-15.52,3.76-23.36,1.31-16.31,.99-32.63-1.21-48.88-.24-1.79-.03-3.65,.54-5.47,2.84,27.18,5.34,54.36-1.88,81.44,.87-2.48,1.74-4.96,2.86-8.15l.7,2.57c1.03-2.2,2.05-4.37,3.07-6.54l-.04-.05Zm51.87-141.26c-.15-.38-.19-.95-.47-1.11-4.2-2.51-8.39-5.06-12.68-7.41-2.33-1.27-4.87-2.16-7.31-3.23,6.01,5.51,12.88,9.31,20.52,11.69l-2.05,1.01c7.99,4.6,16.26,6.95,21.66,13.47-11.7-6.26-23.46-12.55-35.23-18.85l-.47,.85c.61,.43,1.2,.91,1.84,1.29,8.26,4.94,16.37,10.16,24.82,14.74,16.14,8.75,26.82,21.91,32.96,39.02,1.56,4.36,3.29,8.66,4.97,13.07,7.85-5.18,6.52-3.24,4.23-10.78-.03-.09-.06-.18-.09-.27-2.82-8.54-6.18-16.82-11.69-24.05-10.66-13.98-24.99-22.88-40.98-29.46Zm-2.83,8.48l-.39,.62c-.5-.18-1.05-.27-1.48-.56-7.23-4.93-14.88-9.36-21.53-14.97-6.53-5.51-13.01-11.2-16.18-19.93-2.34-6.45-7.23-11.96-9.69-18.38-4.36-11.38-7.77-23.12-11.51-34.73-1.33-4.14-2.46-8.35-3.68-12.53-.39,.75-.46,1.42-.32,2.05,2.5,10.97,4.61,22.05,7.64,32.87,5.35,19.1,15.54,35.52,29.29,49.76,12.29,12.72,26.75,22.63,41.65,31.94,11.78,7.36,21.95,16.19,27.43,29.37,2,4.81,3.63,9.78,5.41,14.65,3.73-2.71,3.78-2.96,2.16-7.04-1.44-3.63-2.84-7.28-4.19-10.94-5.38-14.66-14.41-26.3-28.04-34.21-4.2-2.44-8.25-5.14-12.45-7.6-3.75-2.2-7.59-4.22-11.39-6.32l-.33,.55c2.53,1.81,5.05,3.61,7.58,5.42Zm-100.7,139.55c-5.41-8.63-7.62-17.7-9.03-26.77-2.17-13.94-.27-27.81,3.08-41.44,4.28-17.4,8.68-34.77,12.98-52.17,.64-2.57,.98-5.21,1.46-7.82-.69,.32-.91,.73-1.06,1.17-5.03,15.09-9.94,30.23-15.12,45.27-6.29,18.29-10.14,36.94-9.07,56.4,.45,8.12,2,15.91,7.09,22.56,.65,.85,1.6,1.8,2.56,2.02,2.11,.47,4.32,.5,7.1,.77Zm-83.67-52.75c-.19-1.22-.14-1.73-.34-2.11-4.42-8.14-4.65-16.99-4.41-25.93,.25-9.03,3.17-17.17,8.09-24.68,10.66-16.27,25.11-28.23,42.16-37.27,3.57-1.89,7.06-3.96,10.58-5.95-.72-.34-1.27-.28-1.76-.07-16.66,7.02-32.7,15.17-46.85,26.56-7.69,6.19-13.62,13.77-17.02,23.21-2.86,7.97-2.19,16.19-2.1,24.38,.1,8.94,4.33,15.75,11.65,21.85Zm165.99,34.03c-2.51,3.84-4.93,7.62-7.43,11.33-2.05,3.04-2.11,4.45,.25,7.42,2.97,3.73,7.39,4.79,11.64,6.19,1.24,.41,2.44,1.1,3.52,1.85,1.94,1.34,3.87,2.41,6.35,1.54,2.5-.87,2.7-2.95,2.77-5.1,.22-6.17-.97-11.98-4.83-16.96-1.01-1.3-2.37-2.34-3.62-3.45-3.21-2.84-6.46-5.64-9.69-8.46-.41,2.18-.84,3.94,1.64,4.46,.77,.16,1.3,1.42,1.94,2.18l-.53,.45c-.8-.58-1.6-1.16-2.01-1.46Zm38.61,46.72c4.71,.97,9.39,2.17,14.15,2.84,4.85,.69,9.79,1.31,14.77-.53l-1.41-1.07c16.23-3.01,31.19-9.57,34.44-15.21-.69,.41-1.17,.67-1.64,.97-7.74,5-15.97,8.93-24.91,11.22-2.43,.62-5.03,.54-7.54,.83-3.39,.39-6.8,1.34-10.15,1.17-14.65-.74-28.35-4.57-40.46-13.27-1.27-.91-3.19-.92-4.81-1.35l-.34,.84c.45,.55,.81,1.24,1.38,1.64,4.51,3.16,8.83,6.7,13.65,9.3,10.13,5.48,21.25,7.78,32.64,8.71,4.82,.39,9.38-1.02,13.82-2.84-11.49,1.78-22.71,1.15-33.57-3.25Zm37.72-118.11l.89-.17c0-1.47,.24-2.98-.04-4.39-1.65-8.47-4.6-16.49-8.74-24.07-1.52-2.79-2.75-5.74-4.11-8.61,7.15,10.33,12.98,21.24,15.44,33.69-1.22-12.08-4.24-23.53-11.4-33.52-5.9-8.24-23.11-20.54-29.68-21.27,3,1.79,5.98,3.15,8.48,5.13,14.07,11.1,22.75,25.61,26.64,43.05,.76,3.41,1.68,6.79,2.53,10.18ZM119.11,17.33c1.77-3.61,.98-6.88-2.05-9.84-2.12-2.08-4.29-2.12-7.61-.7-4,1.7-5.58,5.16-7.16,8.78-2.2,5.02-2.74,10.07-.86,15.29,1.52,4.22,4.11,4.81,7.07,1.54,2.36-2.61,4.63-5.3,6.9-7.99,2.54-3.01,3.06-8.75,.77-11.92-1.16-1.61-3-2.74-4.44-4.01,4.71,.27,6.23,1.99,7.38,8.84Zm1.83,2.11c-3.87,4.79-7.52,9.63-11.53,14.15-3.54,4-7.73,3.13-9.86-1.72-3.93-8.96-.15-21.53,8.07-26.84,1.32-.86,2.65-1.7,4.14-2.64-3.12-1.23-6.08-.63-8.12,1.98-6.9,8.8-8.6,18.97-6.8,29.69,.86,5.1,6.73,7.35,10.98,4.3,6.59-4.72,10.93-11.19,13.13-18.93Zm69.03,324.88c9.04,16.41,29.43,26.5,43.61,23.03-5.61-1.78-11.98-3.69-18.27-5.84-7.44-2.55-13.58-7.15-19.19-12.57-1.83-1.77-4.09-3.09-6.15-4.62Zm64.2-123.33c-3.55-9.34-10.17-18.37-17.14-23.8-6.91-5.38-23.5-13.62-26.74-12.91,18.38,8.13,33.9,19.13,43.88,36.71Zm-71.88,119.58c1.88,8.7,16.24,22.25,24.06,22.96-8.67-4.9-14.19-12.37-20.13-19.42-.96-1.13-2.21-2.01-3.93-3.54ZM139.74,83.41c-.52,5.73,5.61,26.13,9.27,30.85-3.15-10.5-6.12-20.37-9.27-30.85Zm22.77,63.51c-3.09-6.11-6.18-12.22-9.27-18.33-.39,1.07-.32,1.92-.04,2.7,2.12,5.82,2.69,12.54,9.31,15.63Zm133.12,93.99c1.61-6.13,2.26-12.24,6.77-16.74-5.19,2.02-9.46,12.19-6.77,16.74ZM135.11,118.66c-1.38-10.3-1.63-20.7-4.17-30.72l-.98,.16c1.72,10.19,3.43,20.37,5.15,30.56Zm-14.75-90.08l-1.41,.42c2.02,6.4,4.04,12.81,6.06,19.21l.98-.29c-1.88-6.45-3.76-12.89-5.64-19.34Zm-1.9,3.12c-.94,2.14,2.67,13.62,5.33,16.34l-5.33-16.34Zm15.58,31.99l-.91,.14c.05,6.04,2.17,11.76,3.15,17.66l.79-.13-3.03-17.68Zm-9.85-42.28l-1.09,.3c1.23,4.75,1.45,9.79,3.98,14.18l.77-.21c-1.22-4.75-2.43-9.51-3.65-14.26Zm6.91,31.53l1.14-.27-3.44-14.82-1.09,.25c1.13,4.94,2.26,9.89,3.4,14.83Zm52.65,297.81c.33-.17,.66-.35,1-.52-.75-1.36-1.52-2.72-2.24-4.1-.75-1.42-1.81-2.81-2.07-4.32-.26-1.57,.03-3.11-2.9-2.7,2.07,3.88,4.14,7.75,6.22,11.63ZM131.26,66.64l.93-.13c-1.49-6.21-2.98-12.41-4.48-18.62l-.61,.13c1.38,6.2,2.77,12.41,4.15,18.61Zm-1.39,13.05l1.09-.27-2.8-12.76-1.04,.23,2.76,12.8Zm-6.85-48.81l-.88,.38,3.41,11.78,.87-.25-3.4-11.91Z"/><path d="M151.43,328.14c3.66-28.53,5.38-57.09,.81-85.72,5.58,11.88,5.04,57.89-.81,85.72Z"/><path d="M141.62,333.37c1.43-17.5,2.87-34.99,4.3-52.49,1.21,17.69-1.48,35.07-4.3,52.49Z"/><path d="M280.26,335.24c-6.94,3.01-13.4,7.24-21.41,7.52,6.98-2.92,13.97-5.84,20.95-8.77l.45,1.24Z"/><path d="M301.25,314.83c-1.88,2.43-3.74,4.89-5.69,7.28-.24,.29-1.01,.33-1.46,.2-.2-.06-.44-1-.27-1.2,2.07-2.45,4.22-4.84,6.35-7.25l1.07,.97Z"/><path d="M154.6,325.5c.53-3.56,1.07-7.12,1.6-10.67,.6-4.04,1.2-8.09,2.27-12.11-.19,2.45-.29,4.91-.61,7.34-.35,2.64-.85,5.27-1.41,7.88-.55,2.52-1.26,5-1.89,7.5l.05,.06Z"/><path d="M286.05,328.79c1.74-1.67,3.45-3.36,5.25-4.96,.3-.27,1.01-.18,1.48-.06,.13,.03,.26,1.02,.07,1.18-2,1.64-4.07,3.21-6.12,4.79l-.69-.95Z"/><path d="M300.5,312.01c1.17-1.9,2.17-3.52,3.46-5.61,1.22,3.62,.04,5.37-3.46,5.61Z"/><path d="M261.53,337.85c1.71-.38,3.42-.75,5.13-1.13l.26,1.15-5.12,1.31-.27-1.33Z"/><path d="M249.28,361.87h-10.1v-.42h10.09v.42Z"/><path d="M110.39,10.78c3.28,.57,6.17,4.67,4.96,7.29-1.6,3.45-3.31,6.86-5.21,10.16-1.77,3.07-4.44,3-6.07-.17-.7-1.36-1.19-3.19-.9-4.63,.65-3.21,1.55-6.45,2.97-9.38,.7-1.44,2.79-2.2,4.25-3.26Zm1.24,10.92c3.13-3.98,3.46-6.12,1.3-7.72-2-1.49-3.24-.1-4.62,1.49,3.82,.55,3.15,3.39,3.32,6.23Z"/></svg>